<svg viewBox="0 0 512 512" xml:space="preserve" xmlns="http://www.w3.org/2000/svg" fill-rule="evenodd" clip-rule="evenodd" stroke-linejoin="round" stroke-miterlimit="2"><path d="M256 .003C111.775.003 0 105.648 0 248.329c0 74.636 30.596 139.126 80.406 183.681 4.172 3.76 6.696 8.963 6.902 14.577l1.391 45.534c.463 14.526 15.452 23.952 28.742 18.131l50.788-22.406a20.428 20.428 0 0 1 13.65-1.03c23.333 6.438 48.212 9.838 74.121 9.838 144.226 0 256-105.645 256-248.325C512 105.648 400.226.003 256 .003Z" fill="url(#a)" class="fillurl(-a)"></path><path d="M102.297 320.956 177.5 201.661c11.95-18.955 37.602-23.694 55.527-10.25l59.802 44.864a15.375 15.375 0 0 0 18.492-.051l80.766-61.296c10.766-8.19 24.879 4.739 17.616 16.174l-75.151 119.244c-11.951 18.955-37.602 23.694-55.527 10.25l-59.802-44.865a15.377 15.377 0 0 0-18.492.052l-80.818 61.347c-10.765 8.19-24.879-4.739-17.616-16.174Z" fill="#ffffff" class="fill-ffffff"></path><defs><linearGradient gradientTransform="matrix(0 512 -512 0 256 .003)" gradientUnits="userSpaceOnUse" id="a" x1="0" x2="1" y1="0" y2="0"><stop offset="0" stop-color="#ffff00" stop-opacity="1" class="stop-color-00b2ff"></stop><stop offset="1" stop-color="#ff0000" stop-opacity="1" class="stop-color-006aff"></stop></linearGradient></defs></svg>